<svg data-v-fde0c5aa="" xmlns="http://www.w3.org/2000/svg" viewBox="0 0 300 300" class="iconAbove"><!----><defs data-v-fde0c5aa=""><linearGradient data-v-fde0c5aa="" gradientTransform="rotate(25)" id="b199fd93-2cd0-47cc-960b-995750b5d585" x1="0%" y1="0%" x2="100%" y2="0%"><stop data-v-fde0c5aa="" offset="0%" stop-color="#E63500" stop-opacity="1"></stop><stop data-v-fde0c5aa="" offset="100%" stop-color="#FFC316" stop-opacity="1"></stop></linearGradient></defs><rect data-v-fde0c5aa="" fill="url(#b199fd93-2cd0-47cc-960b-995750b5d585)" x="0" y="0" width="300px" height="300px" class="logo-background-square"></rect><defs data-v-fde0c5aa=""><!----></defs><g data-v-fde0c5aa="" id="1ffb8f5a-0b77-4ad1-b952-7ff65bea3a5c" fill="#ffffff" transform="matrix(2.260869565217391,0,0,2.260869565217391,19.050434744876362,172.85913022186446)"><path d="M0.42 0.81L2.39 10.50L4.37 10.50L6.20 2.23L8.04 10.50L10.01 10.50L11.97 0.81L10.86 0.81L9.21 9.55L8.81 9.55L6.83 0.90L5.57 0.90L3.60 9.55L3.19 9.55L1.54 0.81ZM17.14 7.24C19.25 7.24 20.23 6.05 20.23 3.93C20.23 1.83 19.25 0.81 17.14 0.81L13.59 0.81L13.59 10.50L14.67 10.50L14.67 7.24ZM14.67 6.29L14.67 1.76L17.12 1.76C18.54 1.76 19.12 2.45 19.12 3.93C19.12 5.43 18.54 6.29 17.12 6.29ZM30.24 10.50L31.51 10.50L28.59 5.68L31.36 0.81L30.13 0.81L27.65 5.26L26.05 5.32L26.05 0.81L24.98 0.81L24.98 10.50L26.05 10.50L26.05 6.27L27.66 6.22ZM35.14 9.72C33.77 9.72 33.31 8.93 33.31 7.43L37.93 7.43L37.98 6.64C37.98 4.34 37.03 3.36 35.17 3.36C33.39 3.36 32.24 4.38 32.24 7.04C32.24 9.42 32.93 10.64 35.01 10.64C36.15 10.64 37.74 10.42 37.74 10.42L37.72 9.59C37.72 9.59 36.19 9.72 35.14 9.72ZM33.29 6.59C33.31 4.90 33.98 4.24 35.17 4.24C36.40 4.24 36.93 4.86 36.93 6.59ZM38.84 3.50L40.82 10.50L41.86 10.50L40.95 13.61L42.00 13.61L44.91 3.50L43.86 3.50L42.10 9.59L41.64 9.59L39.89 3.50ZM45.68 3.50L47.35 10.50L49.10 10.50L50.58 5.03L52.07 10.50L53.82 10.50L55.48 3.50L54.43 3.50L53.03 9.59L52.79 9.59L51.13 3.64L50.04 3.64L48.37 9.59L48.15 9.59L46.73 3.50ZM59.54 3.36C57.33 3.36 56.55 4.51 56.55 6.92C56.55 9.46 57.19 10.64 59.54 10.64C61.91 10.64 62.54 9.46 62.54 6.92C62.54 4.51 61.77 3.36 59.54 3.36ZM59.54 9.73C57.89 9.73 57.62 8.90 57.62 6.92C57.62 4.97 58.06 4.27 59.54 4.27C61.04 4.27 61.46 4.97 61.46 6.92C61.46 8.90 61.21 9.73 59.54 9.73ZM64.25 10.50L65.30 10.50L65.30 5.36C65.30 5.36 66.53 4.68 67.84 4.41L67.84 3.35C66.50 3.61 65.28 4.45 65.28 4.45L65.28 3.50L64.25 3.50ZM74.28 0.45L73.25 0.45L73.25 3.54C73.04 3.50 72.13 3.36 71.53 3.36C69.40 3.36 68.60 4.59 68.60 7.06C68.60 10.08 69.75 10.64 71.12 10.64C72.17 10.64 73.25 10.02 73.25 10.02L73.25 10.50L74.28 10.50ZM71.25 9.70C70.42 9.70 69.68 9.32 69.68 7.06C69.68 5.24 70.11 4.27 71.58 4.27C72.16 4.27 73.02 4.40 73.25 4.44L73.25 9.18C73.25 9.18 72.24 9.70 71.25 9.70ZM79.58 10.50L80.65 10.50L80.65 6.50L84.64 6.50L84.64 5.54L80.65 5.54L80.65 1.76L85.37 1.76L85.37 0.81L79.58 0.81ZM86.76 10.50L87.81 10.50L87.81 3.50L86.76 3.50ZM86.76 1.92L87.81 1.92L87.81 0.70L86.76 0.70ZM90.87 10.50L90.87 4.82C90.87 4.82 91.84 4.30 92.85 4.30C94.15 4.30 94.36 4.98 94.36 6.83L94.36 10.50L95.40 10.50L95.40 6.80C95.40 4.31 94.96 3.36 93.03 3.36C91.99 3.36 90.86 3.99 90.86 3.99L90.86 3.50L89.82 3.50L89.82 10.50ZM102.72 0.45L101.68 0.45L101.68 3.54C101.47 3.50 100.56 3.36 99.96 3.36C97.83 3.36 97.03 4.59 97.03 7.06C97.03 10.08 98.18 10.64 99.55 10.64C100.60 10.64 101.68 10.02 101.68 10.02L101.68 10.50L102.72 10.50ZM99.68 9.70C98.85 9.70 98.11 9.32 98.11 7.06C98.11 5.24 98.55 4.27 100.02 4.27C100.59 4.27 101.46 4.40 101.68 4.44L101.68 9.18C101.68 9.18 100.67 9.70 99.68 9.70ZM107.34 9.72C105.97 9.72 105.50 8.93 105.50 7.43L110.12 7.43L110.18 6.64C110.18 4.34 109.23 3.36 107.37 3.36C105.59 3.36 104.44 4.38 104.44 7.04C104.44 9.42 105.13 10.64 107.21 10.64C108.35 10.64 109.94 10.42 109.94 10.42L109.91 9.59C109.91 9.59 108.39 9.72 107.34 9.72ZM105.49 6.59C105.50 4.90 106.18 4.24 107.37 4.24C108.60 4.24 109.13 4.86 109.13 6.59ZM111.82 10.50L112.87 10.50L112.87 5.36C112.87 5.36 114.10 4.68 115.42 4.41L115.42 3.35C114.07 3.61 112.85 4.45 112.85 4.45L112.85 3.50L111.82 3.50Z"></path></g><defs data-v-fde0c5aa=""><!----></defs><g data-v-fde0c5aa="" id="d690371f-4dc5-47c3-98c6-6fec99434d1f" stroke="none" fill="#ffffff" transform="matrix(0.6263798554374642,0,0,0.6263798554374642,116.44164142025943,94.804485661487)"><path d="M78.275 26.72H66.541c-5.086 0-5.396-4.507-5.405-5.4V9.514L78.275 26.72zm3.605 38.989l3.489 3.489V28.9L61.136 4.569v-.114h-.113L59.076 2.5H18.395C15.318 2.5 9.5 4.364 9.5 11.422v77.155c0 3.087 1.859 8.923 8.895 8.923h58.081c3.075 0 8.894-1.865 8.894-8.923V83.34l-3.489-3.49v8.728c0 5.108-4.503 5.423-5.41 5.434H18.395c-5.087 0-5.395-4.532-5.404-5.434V11.422c0-5.112 4.51-5.422 5.404-5.433h39.232l.021.021v15.309c0 .478.063 1.031.169 1.608H25.095a1.745 1.745 0 1 0 0 3.489H59.16c1.297 2.062 3.557 3.793 7.381 3.793H81.75l.13.13v35.37zM39.25 51.4c0-1.07.105-2.116.26-3.145H25.095a1.745 1.745 0 1 0 0 3.488h14.173c-.002-.114-.018-.226-.018-.343M25.095 39.081H43.22a21.373 21.373 0 0 1 3.132-3.49H25.095a1.745 1.745 0 1 0 0 3.49m16.434 21.838H25.095a1.744 1.744 0 1 0 0 3.489h18.64a21.242 21.242 0 0 1-2.206-3.489m28.246 12.665h-44.68a1.744 1.744 0 1 0 0 3.489h44.681a1.744 1.744 0 1 0-.001-3.489M60.5 66.9c-8.547 0-15.5-6.953-15.5-15.5s6.953-15.5 15.5-15.5S76 42.854 76 51.4s-6.953 15.5-15.5 15.5m36.271 16.529l-20.801-20.8c-.034-.034-.075-.059-.111-.09 2.28-3.135 3.641-6.977 3.641-11.139 0-10.477-8.523-19-19-19s-19 8.523-19 19 8.523 19 19 19c4.162 0 8.005-1.361 11.139-3.64.032.035.057.076.09.109L92.53 87.67c.586.586 1.354.879 2.121.879s1.535-.293 2.121-.879a2.998 2.998 0 0 0-.001-4.241"></path></g><!----></svg>